<?xml version="1.0" encoding="UTF-8"?>
<svg width="531px" height="195px" viewBox="0 0 531 195" version="1.1" xmlns="http://www.w3.org/2000/svg" xmlns:xlink="http://www.w3.org/1999/xlink">
    <title>logo_horiz_darkblue_bgtransparent 2</title>
    <defs>
        <polygon id="path-1" points="-8.8817842e-15 0 80.7099981 0 80.7099981 109.483298 -8.8817842e-15 109.483298"></polygon>
        <polygon id="path-3" points="0 120 453.571394 120 453.571394 0 0 0"></polygon>
    </defs>
    <g id="logo_horiz_darkblue_bgtransparent" stroke="none" stroke-width="1" fill="none" fill-rule="evenodd">
        <g id="Group-21-Copy" transform="translate(39.1401, 37)">
            <path d="M156.656889,52.9978908 C147.810075,52.6564968 139.181047,54.0397312 131.058223,56.8768333 C132.812282,45.6696915 132.676902,32.0257027 128.980429,15.5858145 L127.844411,10.5119929 L123.04135,12.4897238 C103.935057,20.3535586 89.6553686,35.4926178 82.8333742,55.1227743 C76.647079,72.9341247 77.724236,92.0521901 85.7057929,106.261245 L86.1472507,107.044097 C85.4938932,110.440379 85.1112964,113.836661 85.1642713,117.168195 L85.1878158,118.934027 L86.8947859,119.375484 C88.2368176,119.728651 90.2969539,119.999411 92.9398146,119.999411 C97.7723059,119.999411 104.523667,119.081179 112.275666,115.996861 C127.809094,109.822338 148.486977,94.3830873 158.805317,55.9173983 L159.558738,53.1097268 L156.656889,52.9978908 Z" id="Fill-1" fill="#FFBC68"></path>
            <path d="M43.4682886,5.83077451 L41.4670133,4.41222348 L40.8018836,6.62539854 C31.9668416,36.0735763 48.9894541,49.711679 56.7179085,54.2027763 L58.3836759,55.1739834 L59.125325,53.5317604 C66.9538431,36.1265512 61.1030559,18.2975426 43.4682886,5.83077451" id="Fill-3" fill="#2D2F63"></path>
            <g id="Group-7" transform="translate(68.3362, 0)">
                <mask id="mask-2" fill="white">
                    <use xlink:href="#path-1"></use>
                </mask>
                <g id="Clip-6"></g>
                <path d="M31.7081832,101.172119 C22.4728862,104.845048 14.8915844,105.157012 10.959667,104.686124 C11.0303002,102.443518 11.3363776,100.171482 11.7484049,97.8994457 C17.4108368,97.4285574 27.4584162,91.9191642 35.722506,82.6308922 C37.4824511,80.6531613 39.1423324,78.5341639 40.6550611,76.3386472 C44.7517894,70.3995684 48.8249733,62.2532006 51.2029593,51.6405553 C58.607678,48.7033894 66.5244877,47.1141414 74.6708555,47.0670525 C64.6291622,81.5772796 45.8701491,95.5391181 31.7081832,101.172119 M45.7524271,54.1127189 C43.7805823,61.2761073 40.8551886,67.8803159 36.8408658,73.7075587 C35.4340869,75.7441507 33.8919277,77.7101094 32.2555908,79.5465738 C25.0627719,87.6399666 17.1165316,91.9603669 12.8726507,93.04341 C15.6685501,83.2253887 21.4369319,73.5662922 29.5597553,65.678913 C34.4452215,60.9347133 39.9075259,57.0852014 45.7524271,54.1127189 M8.36389516,46.131162 C14.703229,27.8606955 27.9469628,13.7575906 45.6700216,6.37641634 C49.0957341,21.7626919 49.4665586,35.8893412 47.0591421,48.4090842 C39.5131569,51.7465051 32.4792628,56.3729828 26.3282842,62.3532643 C18.2290053,70.2229852 12.2722681,79.7761318 9.04668321,89.6235837 C3.49020114,77.0390935 3.14880711,61.1407269 8.36389516,46.131162 M52.2035969,46.3607201 C53.9576559,35.1476922 53.8222755,21.5095894 50.1316884,5.06970128 L48.9956703,-0.00412027272 L44.1867234,1.97361063 C25.0804302,9.83155933 10.8007422,24.9765046 3.98463387,44.6066611 C-2.20754743,62.4180115 -1.13039041,81.5360769 6.85116646,95.7451317 L7.29262425,96.5279835 C6.63926672,99.9242655 6.26255607,103.320547 6.3096449,106.652082 L6.33907542,108.417913 L8.04604555,108.859371 C9.38219113,109.212537 11.4482136,109.483298 14.0851881,109.483298 C18.9176794,109.483298 25.6690406,108.565066 33.4210394,105.480748 C48.9544676,99.3062246 69.6382367,83.8669741 79.9565768,45.4012851 L80.7099981,42.5936136 L77.8081489,42.4817776 C68.9554486,42.1403836 60.3264203,43.523618 52.2035969,46.3607201" id="Fill-5" fill="#2D2F63" mask="url(#mask-2)"></path>
            </g>
            <path d="M0,37.6963751 C5.03850493,69.1399421 32.9033207,97.3814686 61.1801638,95.9982342 C60.6092118,68.733801 32.0321774,38.9442292 0,37.6963751" id="Fill-8" fill="#2D2F63"></path>
            <path d="M192.310786,55.6266248 C193.340854,48.7928582 197.555305,46.0793643 202.234757,46.0793643 C207.661745,46.0793643 211.405307,50.2938147 211.68784,55.6266248 L192.310786,55.6266248 Z M202.046402,32.6001864 C186.789621,32.6001864 176.871536,43.8308726 176.871536,58.9934762 C176.871536,76.4987492 188.567224,85.8576544 206.91421,85.8576544 C212.435375,85.8576544 217.491539,85.2042969 221.982636,83.6150488 L220.764212,72.1018296 C217.397361,73.3202531 213.842154,73.879433 209.533526,73.879433 C200.733801,73.879433 194.930103,70.9775838 193.064208,64.5205278 L224.884485,64.5205278 C225.25531,62.831216 225.355374,60.5886104 225.355374,58.528474 C225.355374,44.7667631 217.585716,32.6001864 202.046402,32.6001864 L202.046402,32.6001864 Z" id="Fill-10" fill="#2D2F63"></path>
            <path d="M260.156374,44.7691176 C252.386717,42.9915142 250.049934,41.3022024 250.049934,38.2178839 C250.049934,34.5684995 253.322608,32.4141855 259.873841,32.4141855 C265.960073,32.4141855 271.104527,33.5384314 276.443224,35.2218571 L277.284936,19.3117183 C272.040418,17.1574042 267.360965,16.0331584 259.032128,16.0331584 C241.903566,16.0331584 234.51062,25.2037082 234.51062,37.3761711 C234.51062,49.9194585 241.903566,55.0639133 254.817678,57.8715848 C262.310688,59.5550105 265.583362,61.2443224 265.583362,65.0820621 C265.583362,69.1022711 261.8398,71.4449404 254.258498,71.4449404 C247.053907,71.4449404 240.408496,69.8556924 236.00569,67.9839113 L235.258155,82.1164468 C240.873498,84.2648747 245.647128,85.8600088 255.194389,85.8600088 C273.258841,85.8600088 281.122676,76.6835729 281.122676,64.7053514 C281.122676,52.3504194 273.353019,47.6709668 260.156374,44.7691176" id="Fill-12" fill="#2D2F63"></path>
            <path d="M316.017266,72.4738314 C309.466032,72.4738314 304.598224,67.6060234 304.598224,60.0247216 C304.598224,52.7259528 309.371855,47.4814342 316.017266,47.4814342 C322.5685,47.4814342 327.530485,52.7259528 327.530485,60.0247216 C327.530485,67.6060234 322.662677,72.4738314 316.017266,72.4738314 M316.017266,32.6013636 C300.289596,32.6013636 289.341443,43.7378722 289.341443,59.1830088 C289.341443,74.5339677 300.383774,85.8588316 316.017266,85.8588316 C331.833227,85.8588316 342.693089,74.5339677 342.693089,59.1830088 C342.693089,43.7378722 331.833227,32.6013636 316.017266,32.6013636" id="Fill-14" fill="#2D2F63"></path>
            <mask id="mask-4" fill="white">
                <use xlink:href="#path-3"></use>
            </mask>
            <g id="Clip-17"></g>
            <polygon id="Fill-16" fill="#2D2F63" mask="url(#mask-4)" points="354.184529 84.6421739 368.693775 84.6421739 368.693775 13.5086084 354.184529 13.5086084"></polygon>
            <path d="M390.120959,11.7268848 C384.976505,11.7268848 381.227056,15.0996223 381.227056,20.3382548 C381.227056,25.5768872 385.064796,28.9496248 390.120959,28.9496248 C395.177123,28.9496248 399.014862,25.5768872 399.014862,20.3382548 C399.014862,15.0996223 395.365478,11.7268848 390.120959,11.7268848" id="Fill-18" fill="#2D2F63" mask="url(#mask-4)"></path>
            <polygon id="Fill-19" fill="#2D2F63" mask="url(#mask-4)" points="382.914602 84.6421739 397.423849 84.6421739 397.423849 33.821553 382.914602 33.821553"></polygon>
            <path d="M438.787266,70.7892284 C437.380488,73.879433 434.384461,76.4045715 430.264188,76.4045715 C426.714867,76.4045715 423.90131,74.8153235 423.90131,71.442586 C423.90131,67.2340217 426.897337,66.0155982 431.765144,64.8913523 C434.855349,64.2379948 437.28631,63.3021043 438.787266,62.5545691 L438.787266,70.7892284 Z M430.829254,32.6001864 C423.059597,32.6001864 416.414186,34.4719674 412.017266,36.8146368 L413.047334,51.3238829 C417.538431,49.2637465 423.247952,47.480257 429.328297,47.480257 C435.602884,47.480257 438.598911,49.3579242 438.598911,52.3480649 C438.598911,53.6606661 438.2222,54.4082013 436.632952,55.0615588 C434.666994,55.8149801 432.418502,56.37416 428.304115,57.1216952 C417.444254,58.9051847 408.738706,62.0836808 408.738706,72.9376563 C408.738706,81.4607348 414.824937,85.8576544 423.247952,85.8576544 C430.735076,85.8576544 435.043704,82.9558052 438.787266,78.4647079 L438.787266,84.6392309 L453.573159,84.6392309 L453.573159,53.6606661 C453.573159,39.9931329 446.745279,32.6001864 430.829254,32.6001864 L430.829254,32.6001864 Z" id="Fill-20" fill="#2D2F63" mask="url(#mask-4)"></path>
        </g>
    </g>
</svg>