<?xml version="1.0" encoding="UTF-8"?>
<svg width="170px" height="170px" viewBox="0 0 170 170" version="1.1" xmlns="http://www.w3.org/2000/svg" xmlns:xlink="http://www.w3.org/1999/xlink">
    <title>symbol_darkblue_bgtransparent 2</title>
    <defs>
        <polygon id="path-1" points="0 0 68.1236826 0 68.1236826 92.4124164 0 92.4124164"></polygon>
    </defs>
    <g id="symbol_darkblue_bgtransparent" stroke="none" stroke-width="1" fill="none" fill-rule="evenodd">
        <g id="Group" transform="translate(17.2004, 34)">
            <path d="M132.227041,44.7356222 C124.759842,44.4474669 117.476467,45.6149929 110.620357,48.0096633 C112.10088,38.5452503 111.986611,27.0339406 108.866584,13.1577697 L107.907722,8.87518497 L103.853674,10.5444988 C87.7269109,17.1770401 75.6740679,29.9602079 69.915929,46.5291409 C64.6943552,61.5629014 65.603535,77.6996014 72.3404085,89.692826 L72.7130232,90.353596 C72.1615535,93.220245 71.8386208,96.086894 71.8833345,98.8988928 L71.9032073,100.389352 L73.3439841,100.761966 C74.4767327,101.060058 76.2156013,101.288595 78.4463212,101.288595 C82.5252099,101.288595 88.2237305,100.513556 94.7668444,97.9102219 C107.877913,92.6985845 125.331185,79.6670069 134.040432,47.1998474 L134.676361,44.830018 L132.227041,44.7356222 Z" id="Fill-1" fill="#FFBC68"></path>
            <path d="M36.690126,4.92397885 L35.0009394,3.72664367 L34.4395333,5.59468529 C26.9822714,30.4505689 41.3502936,41.9618785 47.8735347,45.7526119 L49.2795341,46.5723642 L49.9055268,45.1862376 C56.5132272,30.4952826 51.5748406,15.4466176 36.690126,4.92397885" id="Fill-3" fill="#2D2F63"></path>
            <g id="Group-7" transform="translate(57.6795, 0)">
                <mask id="mask-2" fill="white">
                    <use xlink:href="#path-1"></use>
                </mask>
                <g id="Clip-6"></g>
                <path d="M26.7634526,85.3973239 C18.9683534,88.4974781 12.5693172,88.7607925 9.25056241,88.3633368 C9.31018076,86.4704542 9.56852694,84.5527306 9.91630065,82.6350071 C14.695705,82.2375514 23.1764152,77.5873201 30.1517621,69.7475072 C31.6372527,68.0781934 33.0382839,66.2896429 34.3151102,64.4365059 C37.7729745,59.4235963 41.210966,52.5476133 43.2181171,43.5899563 C49.4681074,41.1108266 56.1503307,39.7694137 63.0263137,39.7296682 C54.5505717,68.8582001 38.7169317,80.6427605 26.7634526,85.3973239 M38.6175678,45.6765985 C36.9532222,51.7228928 34.4840289,57.2972085 31.0957193,62.2157223 C29.9083205,63.9347181 28.6066532,65.5940955 27.2254948,67.1441726 C21.1543595,73.9754418 14.4472952,77.6220975 10.865226,78.5362455 C13.2251191,70.2492949 18.0939509,62.0964856 24.9500611,55.4391033 C29.0736636,51.4347375 33.6841493,48.1855374 38.6175678,45.6765985 M7.05958807,38.939725 C12.4103349,23.5184453 23.5887755,11.6146481 38.548013,5.38453061 C41.439503,18.3713944 41.7524993,30.2950643 39.7205072,40.8624168 C33.3512802,43.6793838 27.4142862,47.5843857 22.2225216,52.6320726 C15.3862842,59.2745504 10.3584701,67.3379322 7.63589878,75.6497238 C2.94592195,65.0277212 2.65776659,51.6086243 7.05958807,38.939725 M44.0627104,39.1334847 C45.5432327,29.6690717 45.4289642,18.157762 42.3139054,4.28159114 L41.3550437,-0.000993639159 L37.2960277,1.66832015 C21.1692641,8.30086154 9.11642113,21.0840293 3.36325039,37.6529623 C-1.86329159,52.6867228 -0.954111754,68.8234227 5.78276175,80.8166474 L6.15537643,81.4774174 C5.6039067,84.3440664 5.28594217,87.2107154 5.32568773,90.0227142 L5.35052871,91.5131729 L6.79130549,91.8857876 C7.91908594,92.1838794 9.66292266,92.4124164 11.8886744,92.4124164 C15.9675631,92.4124164 21.6660837,91.6373778 28.2091976,89.0340432 C41.3202663,83.8224059 58.7785063,70.7908283 67.4877536,38.3236687 L68.1236826,35.9538393 L65.6743621,35.8594436 C58.2021956,35.5712883 50.9188206,36.7388143 44.0627104,39.1334847" id="Fill-5" fill="#2D2F63" mask="url(#mask-2)"></path>
            </g>
            <path d="M0,31.8203004 C4.2527756,58.3604024 27.7722145,82.1978058 51.6394271,81.0302798 C51.1575121,58.0175969 27.0369215,32.873558 0,31.8203004" id="Fill-8" fill="#2D2F63"></path>
        </g>
    </g>
</svg>