<?xml version="1.0" standalone="no"?>
<!DOCTYPE svg PUBLIC "-//W3C//DTD SVG 20010904//EN"
 "http://www.w3.org/TR/2001/REC-SVG-20010904/DTD/svg10.dtd">
<svg version="1.0" xmlns="http://www.w3.org/2000/svg"
 width="1700.000000pt" height="1700.000000pt" viewBox="0 0 1700.000000 1700.000000"
 preserveAspectRatio="xMidYMid meet">
<metadata>
Created by potrace 1.14, written by Peter Selinger 2001-2017
</metadata>
<g transform="translate(0.000000,1700.000000) scale(0.100000,-0.100000)"
fill="#000000" stroke="none">
<path d="M11370 13501 c-596 -247 -927 -423 -1343 -715 -1434 -1005 -2366
-2641 -2522 -4426 -20 -230 -20 -738 0 -963 59 -673 247 -1319 534 -1837 l59
-108 -18 -108 c-42 -249 -52 -363 -57 -629 l-5 -270 88 -23 c191 -49 231 -53
514 -59 243 -4 296 -3 455 17 580 70 1074 220 1630 495 557 276 1026 614 1481
1069 781 783 1356 1745 1808 3025 132 374 320 1020 302 1038 -14 14 -829 9
-971 -5 -465 -48 -979 -157 -1367 -291 -42 -14 -58 -16 -58 -8 0 7 9 75 19
152 90 647 90 1421 1 2165 -54 442 -103 725 -216 1238 -79 362 -74 342 -88
342 -6 -1 -117 -45 -246 -99z m-26 -468 c13 -42 88 -434 111 -579 14 -88 32
-199 40 -249 8 -49 24 -171 35 -270 89 -800 74 -1563 -46 -2270 -14 -82 -26
-150 -27 -151 -1 0 -63 -29 -137 -64 -453 -210 -920 -510 -1320 -849 -159
-134 -450 -420 -593 -581 -411 -464 -724 -950 -980 -1520 -62 -139 -167 -409
-167 -430 0 -53 -78 130 -150 351 -88 269 -158 600 -197 924 -25 212 -25 862
0 1080 39 341 98 647 182 945 431 1527 1419 2753 2800 3476 133 69 421 204
437 204 4 0 9 -8 12 -17z m2436 -3422 c0 -39 -209 -659 -303 -898 -552 -1400
-1346 -2457 -2362 -3145 -638 -432 -1361 -709 -2070 -794 -138 -17 -561 -23
-604 -9 -24 7 -24 8 -17 109 7 104 26 257 47 383 l12 73 36 5 c512 80 1214
505 1791 1085 706 710 1203 1616 1466 2672 l36 147 82 32 c452 175 1013 299
1536 338 157 11 350 13 350 2z m-2446 -623 c-3 -18 -33 -116 -66 -218 -269
-831 -676 -1508 -1253 -2085 -358 -358 -741 -637 -1117 -814 -106 -51 -308
-125 -315 -117 -8 8 123 385 182 526 432 1024 1205 1920 2170 2515 126 78 386
225 398 225 5 0 5 -15 1 -32z"/>
<path d="M5208 13208 c-3 -13 -31 -110 -62 -217 -285 -982 -257 -1848 84
-2594 148 -324 355 -612 637 -887 208 -203 377 -333 632 -486 133 -79 146 -84
158 -68 21 29 140 316 178 431 114 342 165 647 165 982 -1 955 -477 1847
-1367 2560 -110 88 -385 289 -408 297 -7 3 -15 -5 -17 -18z"/>
<path d="M1720 10402 c0 -12 12 -82 26 -154 313 -1608 1311 -3116 2649 -4003
752 -499 1535 -754 2319 -755 l178 0 -7 113 c-67 1091 -614 2205 -1535 3128
-382 382 -740 663 -1202 942 -699 423 -1557 698 -2310 743 -116 7 -118 7 -118
-14z"/>
</g>
</svg>
